<svg xmlns="http://www.w3.org/2000/svg" xmlns:xlink="http://www.w3.org/1999/xlink">
	<symbol viewBox="0 0 576 512" id="home" xmlns="http://www.w3.org/2000/svg">
		<path xmlns="http://www.w3.org/2000/svg" d="M488 312.7V456c0 13.3-10.7 24-24 24H348c-6.6 0-12-5.4-12-12V356c0-6.6-5.4-12-12-12h-72c-6.6 0-12 5.4-12 12v112c0 6.6-5.4 12-12 12H112c-13.3 0-24-10.7-24-24V312.7c0-3.6 1.6-7 4.4-9.3l188-154.8c4.4-3.6 10.8-3.6 15.3 0l188 154.8c2.7 2.3 4.3 5.7 4.3 9.3zm83.6-60.9L488 182.9V44.4c0-6.6-5.4-12-12-12h-56c-6.6 0-12 5.4-12 12V117l-89.5-73.7c-17.7-14.6-43.3-14.6-61 0L4.4 251.8c-5.1 4.2-5.8 11.8-1.6 16.9l25.5 31c4.2 5.1 11.8 5.8 16.9 1.6l235.2-193.7c4.4-3.6 10.8-3.6 15.3 0l235.2 193.7c5.1 4.2 12.7 3.5 16.9-1.6l25.5-31c4.2-5.2 3.4-12.7-1.7-16.9z"></path>
	</symbol>
	<symbol viewBox="0 0 512 512" id="chevron-circle-right" xmlns="http://www.w3.org/2000/svg">
		<path xmlns="http://www.w3.org/2000/svg" d="M256 8c137 0 248 111 248 248S393 504 256 504 8 393 8 256 119 8 256 8zm113.9 231L234.4 103.5c-9.4-9.4-24.6-9.4-33.9 0l-17 17c-9.4 9.4-9.4 24.6 0 33.9L285.1 256 183.5 357.6c-9.4 9.4-9.4 24.6 0 33.9l17 17c9.4 9.4 24.6 9.4 33.9 0L369.9 273c9.4-9.4 9.4-24.6 0-34z"></path>
	</symbol>
	<symbol viewBox="0 0 448 512" id="calendar" xmlns="http://www.w3.org/2000/svg">
		<path xmlns="http://www.w3.org/2000/svg" d="M148 288h-40c-6.6 0-12-5.4-12-12v-40c0-6.6 5.4-12 12-12h40c6.6 0 12 5.4 12 12v40c0 6.6-5.4 12-12 12zm108-12v-40c0-6.6-5.4-12-12-12h-40c-6.6 0-12 5.4-12 12v40c0 6.6 5.4 12 12 12h40c6.6 0 12-5.4 12-12zm96 0v-40c0-6.6-5.4-12-12-12h-40c-6.6 0-12 5.4-12 12v40c0 6.6 5.4 12 12 12h40c6.6 0 12-5.4 12-12zm-96 96v-40c0-6.6-5.4-12-12-12h-40c-6.6 0-12 5.4-12 12v40c0 6.6 5.4 12 12 12h40c6.6 0 12-5.4 12-12zm-96 0v-40c0-6.6-5.4-12-12-12h-40c-6.6 0-12 5.4-12 12v40c0 6.6 5.4 12 12 12h40c6.6 0 12-5.4 12-12zm192 0v-40c0-6.6-5.4-12-12-12h-40c-6.6 0-12 5.4-12 12v40c0 6.6 5.4 12 12 12h40c6.6 0 12-5.4 12-12zm96-260v352c0 26.5-21.5 48-48 48H48c-26.5 0-48-21.5-48-48V112c0-26.5 21.5-48 48-48h48V12c0-6.6 5.4-12 12-12h40c6.6 0 12 5.4 12 12v52h128V12c0-6.6 5.4-12 12-12h40c6.6 0 12 5.4 12 12v52h48c26.5 0 48 21.5 48 48zm-48 346V160H48v298c0 3.3 2.7 6 6 6h340c3.3 0 6-2.7 6-6z"></path>
	</symbol>
	<symbol viewBox="0 0 576 512" id="comment" xmlns="http://www.w3.org/2000/svg">
		<path xmlns="http://www.w3.org/2000/svg" d="M576 240c0 115-129 208-288 208-48.3 0-93.9-8.6-133.9-23.8-40.3 31.2-89.8 50.3-142.4 55.7-5.2.6-10.2-2.8-11.5-7.7-1.3-5 2.7-8.1 6.6-11.8 19.3-18.4 42.7-32.8 51.9-94.6C21.9 330.9 0 287.3 0 240 0 125.1 129 32 288 32s288 93.1 288 208z"></path>
	</symbol>
	<symbol viewBox="0 0 512 512" id="clock" xmlns="http://www.w3.org/2000/svg">
		<path xmlns="http://www.w3.org/2000/svg" d="M256 8C119 8 8 119 8 256s111 248 248 248 248-111 248-248S393 8 256 8zm216 248c0 118.7-96.1 216-216 216-118.7 0-216-96.1-216-216 0-118.7 96.1-216 216-216 118.7 0 216 96.1 216 216zm-148.9 88.3l-81.2-59c-3.1-2.3-4.9-5.9-4.9-9.7V116c0-6.6 5.4-12 12-12h14c6.6 0 12 5.4 12 12v146.3l70.5 51.3c5.4 3.9 6.5 11.4 2.6 16.8l-8.2 11.3c-3.9 5.3-11.4 6.5-16.8 2.6z"></path>
	</symbol>
	<symbol viewBox="0 0 640 512" id="tags" xmlns="http://www.w3.org/2000/svg">
		<path xmlns="http://www.w3.org/2000/svg" d="M497.941 225.941L286.059 14.059A48 48 0 0 0 252.118 0H48C21.49 0 0 21.49 0 48v204.118a48 48 0 0 0 14.059 33.941l211.882 211.882c18.744 18.745 49.136 18.746 67.882 0l204.118-204.118c18.745-18.745 18.745-49.137 0-67.882zM112 160c-26.51 0-48-21.49-48-48s21.49-48 48-48 48 21.49 48 48-21.49 48-48 48zm513.941 133.823L421.823 497.941c-18.745 18.745-49.137 18.745-67.882 0l-.36-.36L527.64 323.522c16.999-16.999 26.36-39.6 26.36-63.64s-9.362-46.641-26.36-63.64L331.397 0h48.721a48 48 0 0 1 33.941 14.059l211.882 211.882c18.745 18.745 18.745 49.137 0 67.882z"></path>
	</symbol>
	<symbol viewBox="0 0 264 512" id="fb" xmlns="http://www.w3.org/2000/svg">
		<path xmlns="http://www.w3.org/2000/svg" d="M76.7 512V283H0v-91h76.7v-71.7C76.7 42.4 124.3 0 193.8 0c33.3 0 61.9 2.5 70.2 3.6V85h-48.2c-37.8 0-45.1 18-45.1 44.3V192H256l-11.7 91h-73.6v229"></path>
	</symbol>
	<symbol viewBox="0 0 448 512" id="instagram" xmlns="http://www.w3.org/2000/svg">
		<path xmlns="http://www.w3.org/2000/svg" d="M224.1 141c-63.6 0-114.9 51.3-114.9 114.9s51.3 114.9 114.9 114.9S339 319.5 339 255.9 287.7 141 224.1 141zm0 189.6c-41.1 0-74.7-33.5-74.7-74.7s33.5-74.7 74.7-74.7 74.7 33.5 74.7 74.7-33.6 74.7-74.7 74.7zm146.4-194.3c0 14.9-12 26.8-26.8 26.8-14.9 0-26.8-12-26.8-26.8s12-26.8 26.8-26.8 26.8 12 26.8 26.8zm76.1 27.2c-1.7-35.9-9.9-67.7-36.2-93.9-26.2-26.2-58-34.4-93.9-36.2-37-2.1-147.9-2.1-184.9 0-35.8 1.7-67.6 9.9-93.9 36.1s-34.4 58-36.2 93.9c-2.1 37-2.1 147.9 0 184.9 1.7 35.9 9.9 67.7 36.2 93.9s58 34.4 93.9 36.2c37 2.1 147.9 2.1 184.9 0 35.9-1.7 67.7-9.9 93.9-36.2 26.2-26.2 34.4-58 36.2-93.9 2.1-37 2.1-147.8 0-184.8zM398.8 388c-7.8 19.6-22.9 34.7-42.6 42.6-29.5 11.7-99.5 9-132.1 9s-102.7 2.6-132.1-9c-19.6-7.8-34.7-22.9-42.6-42.6-11.7-29.5-9-99.5-9-132.1s-2.6-102.7 9-132.1c7.8-19.6 22.9-34.7 42.6-42.6 29.5-11.7 99.5-9 132.1-9s102.7-2.6 132.1 9c19.6 7.8 34.7 22.9 42.6 42.6 11.7 29.5 9 99.5 9 132.1s2.7 102.7-9 132.1z"></path>
	</symbol>
	<symbol viewBox="0 0 576 512" id="youtube" xmlns="http://www.w3.org/2000/svg">
		<path xmlns="http://www.w3.org/2000/svg" d="M549.655 124.083c-6.281-23.65-24.787-42.276-48.284-48.597C458.781 64 288 64 288 64S117.22 64 74.629 75.486c-23.497 6.322-42.003 24.947-48.284 48.597-11.412 42.867-11.412 132.305-11.412 132.305s0 89.438 11.412 132.305c6.281 23.65 24.787 41.5 48.284 47.821C117.22 448 288 448 288 448s170.78 0 213.371-11.486c23.497-6.321 42.003-24.171 48.284-47.821 11.412-42.867 11.412-132.305 11.412-132.305s0-89.438-11.412-132.305zm-317.51 213.508V175.185l142.739 81.205-142.739 81.201z"></path>
	</symbol>
	<symbol viewBox="0 0 512 512" id="envelope" xmlns="http://www.w3.org/2000/svg">
		<path xmlns="http://www.w3.org/2000/svg" d="M464 64H48C21.49 64 0 85.49 0 112v288c0 26.51 21.49 48 48 48h416c26.51 0 48-21.49 48-48V112c0-26.51-21.49-48-48-48zm0 48v40.805c-22.422 18.259-58.168 46.651-134.587 106.49-16.841 13.247-50.201 45.072-73.413 44.701-23.208.375-56.579-31.459-73.413-44.701C106.18 199.465 70.425 171.067 48 152.805V112h416zM48 400V214.398c22.914 18.251 55.409 43.862 104.938 82.646 21.857 17.205 60.134 55.186 103.062 54.955 42.717.231 80.509-37.199 103.053-54.947 49.528-38.783 82.032-64.401 104.947-82.653V400H48z"></path>
	</symbol>
	<symbol viewBox="0 0 512 512" id="printer" xmlns="http://www.w3.org/2000/svg">
		<path xmlns="http://www.w3.org/2000/svg" d="M416 192V81.9c0-6.4-2.5-12.5-7-17L351 7c-4.5-4.5-10.6-7-17-7H120c-13.3 0-24 10.7-24 24v168c-53 0-96 43-96 96v136c0 13.3 10.7 24 24 24h72v40c0 13.3 10.7 24 24 24h272c13.3 0 24-10.7 24-24v-40h72c13.3 0 24-10.7 24-24V288c0-53-43-96-96-96zM144 48h180.1L368 91.9V240H144V48zm224 416H144v-80h224v80zm96-64h-48v-40c0-13.2-10.8-24-24-24H120c-13.2 0-24 10.8-24 24v40H48V288c0-26.5 21.5-48 48-48v24c0 13.2 10.8 24 24 24h272c13.2 0 24-10.8 24-24v-24c26.5 0 48 21.5 48 48v112zm-8-96c0 13.3-10.7 24-24 24s-24-10.7-24-24 10.7-24 24-24 24 10.7 24 24z"></path>
	</symbol>
	<symbol viewBox="0 0 512 512" id="thumbs-up" xmlns="http://www.w3.org/2000/svg">
		<path xmlns="http://www.w3.org/2000/svg" d="M466.27 286.69C475.04 271.84 480 256 480 236.85c0-44.015-37.218-85.58-85.82-85.58H357.7c4.92-12.81 8.85-28.13 8.85-46.54C366.55 31.936 328.86 0 271.28 0c-61.607 0-58.093 94.933-71.76 108.6-22.747 22.747-49.615 66.447-68.76 83.4H32c-17.673 0-32 14.327-32 32v240c0 17.673 14.327 32 32 32h64c14.893 0 27.408-10.174 30.978-23.95 44.509 1.001 75.06 39.94 177.802 39.94 7.22 0 15.22.01 22.22.01 77.117 0 111.986-39.423 112.94-95.33 13.319-18.425 20.299-43.122 17.34-66.99 9.854-18.452 13.664-40.343 8.99-62.99zm-61.75 53.83c12.56 21.13 1.26 49.41-13.94 57.57 7.7 48.78-17.608 65.9-53.12 65.9h-37.82c-71.639 0-118.029-37.82-171.64-37.82V240h10.92c28.36 0 67.98-70.89 94.54-97.46 28.36-28.36 18.91-75.63 37.82-94.54 47.27 0 47.27 32.98 47.27 56.73 0 39.17-28.36 56.72-28.36 94.54h103.99c21.11 0 37.73 18.91 37.82 37.82.09 18.9-12.82 37.81-22.27 37.81 13.489 14.555 16.371 45.236-5.21 65.62zM88 432c0 13.255-10.745 24-24 24s-24-10.745-24-24 10.745-24 24-24 24 10.745 24 24z"></path>
	</symbol>
	<symbol viewBox="0 0 384 512" id="mouse-pointer" xmlns="http://www.w3.org/2000/svg">
		<path xmlns="http://www.w3.org/2000/svg" d="M356.683 255.576L115.915 18.636C77.055-21.086 8 6.909 8 62.87v349.112c0 55.241 67.457 83.887 107.414 44.727l23.927-23.449 17.535 40.669.121.281.125.274c13.903 31.145 50.295 45.894 82.155 32.648l41.903-17.395.254-.106.253-.109c15.618-6.697 27.662-19.038 33.912-34.749 6.184-15.545 5.927-32.568-.724-47.933l-18.71-43.423h16.527c55.848.002 85.165-68.485 43.991-107.841zm-43.872 59.843h-89.594l47.607 110.491c3.316 7.661-.474 16.249-8.053 19.499l-41.922 17.409c-7.816 3.25-16.58-.465-19.895-7.892l-45.238-104.92-73.898 72.423C72.038 432.012 56 424.734 56 411.982V62.868c0-13.309 16.978-19.829 25.817-10.445L323.47 290.117c9.79 9.091 2.553 25.302-10.659 25.302z"></path>
	</symbol>
	<symbol viewBox="0 0 512 512" id="cube" xmlns="http://www.w3.org/2000/svg">
		<path xmlns="http://www.w3.org/2000/svg" d="M239.1 7.5l-208 78c-18.7 7-31.1 25-31.1 45v225.1c0 18.2 10.3 34.8 26.5 42.9l208 104c13.5 6.8 29.4 6.8 42.9 0l208-104c16.3-8.1 26.5-24.8 26.5-42.9V130.5c0-20-12.4-37.9-31.1-44.9l-208-78C262 3.4 250 3.4 239.1 7.5zm16.9 45l208 78v.3l-208 84.5-208-84.5v-.3l208-78zM48 182.6l184 74.8v190.2l-184-92v-173zm232 264.9V257.4l184-74.8v172.9l-184 92z"></path>
	</symbol>
	<symbol viewBox="0 0 384 512" id="clipboard-check" xmlns="http://www.w3.org/2000/svg">
		<path xmlns="http://www.w3.org/2000/svg" d="M269.3 225.8c-3.9-3.9-10.2-3.9-14.1-.1l-88 87.3-38.1-38.5c-3.9-3.9-10.2-3.9-14.1-.1l-23.6 23.4c-3.9 3.9-3.9 10.2-.1 14.1l68.5 69.1c3.9 3.9 10.2 3.9 14.1.1l118.6-117.6c3.9-3.9 3.9-10.2.1-14.1l-23.3-23.6zM336 64h-80c0-35.3-28.7-64-64-64s-64 28.7-64 64H48C21.5 64 0 85.5 0 112v352c0 26.5 21.5 48 48 48h288c26.5 0 48-21.5 48-48V112c0-26.5-21.5-48-48-48zM192 48c8.8 0 16 7.2 16 16s-7.2 16-16 16-16-7.2-16-16 7.2-16 16-16zm144 408c0 4.4-3.6 8-8 8H56c-4.4 0-8-3.6-8-8V120c0-4.4 3.6-8 8-8h40v32c0 8.8 7.2 16 16 16h160c8.8 0 16-7.2 16-16v-32h40c4.4 0 8 3.6 8 8v336z"></path>
	</symbol>
	<symbol viewBox="0 0 448 512" id="user" xmlns="http://www.w3.org/2000/svg">
		<path xmlns="http://www.w3.org/2000/svg" d="M224 0c77.32 0 140 62.68 140 140s-62.68 140-140 140S84 217.32 84 140 146.68 0 224 0zm151.283 289.821l-53.309-13.327c-65.557 47.154-145.021 36.631-195.948 0l-53.309 13.327C29.981 300.505 0 338.903 0 382.955V464c0 26.51 21.49 48 48 48h352c26.51 0 48-21.49 48-48v-81.045c0-44.052-29.981-82.45-72.717-93.134z"></path>
	</symbol>
</svg>